<svg width="40" height="40" viewBox="0 0 40 40" fill="none" xmlns="http://www.w3.org/2000/svg">
<path d="M20.0457 13.1451C19.873 8.58964 19.1133 3.84135 16.167 1.34786C12.072 -2.11512 5.8577 1.60676 6.7374 6.7131C1.03022 6.11084 -2.81759 13.8924 2.9314 17.5592C5.66503 19.2999 8.4641 19.8471 11.7466 19.9958C8.42593 20.1831 5.60142 20.7743 2.84052 22.5334C-2.90665 26.1983 0.939339 33.9799 6.64834 33.3777C5.76682 38.484 11.8157 41.9947 16.0761 38.7429C18.7061 36.7342 19.6567 33.273 19.9621 29.6264C20.3038 33.273 21.2944 36.7342 23.9244 38.7429C28.1848 41.9947 34.2319 38.4859 33.3522 33.3777C39.0593 33.9799 42.9072 26.1983 37.1582 22.5334C34.4209 20.789 31.5709 20.1923 28.243 19.9995C31.5691 19.8581 34.3954 19.3201 37.1582 17.5574C42.9072 13.8943 39.0612 6.11084 33.3522 6.7131C34.2319 1.60859 28.0176 -2.11512 23.9244 1.34786C20.9781 3.84135 20.2165 8.58964 20.0457 13.1451Z" fill="#F5F3F3"/>
</svg>
