<svg width="36" height="36" viewBox="0 0 36 36" fill="none" xmlns="http://www.w3.org/2000/svg">
<path d="M18.0411 11.8306C17.8857 7.73068 17.2019 3.45722 14.5503 1.21307C10.8648 -1.90361 5.27193 1.44608 6.06366 6.04179C0.927196 5.49975 -2.53583 12.5032 2.63826 15.8033C5.09853 17.3699 7.61769 17.8624 10.572 17.9962C7.58334 18.1648 5.04128 18.6969 2.55647 20.28C-2.61598 23.5785 0.845406 30.582 5.98351 30.0399C5.19014 34.6356 10.6341 37.7953 14.4685 34.8686C16.8355 33.0608 17.6911 29.9457 17.9659 26.6638C18.2734 29.9457 19.1649 33.0608 21.532 34.8686C25.3663 37.7953 30.8087 34.6373 30.0169 30.0399C35.1534 30.582 38.6164 23.5785 33.4423 20.28C30.9788 18.7101 28.4138 18.1731 25.4187 17.9995C28.4122 17.8723 30.9559 17.3881 33.4423 15.8017C38.6164 12.5049 35.155 5.49975 30.0169 6.04179C30.8087 1.44773 25.2158 -1.90361 21.532 1.21307C18.8803 3.45722 18.1949 7.73068 18.0411 11.8306Z" fill="#FF6C00"/>
</svg>
