<svg width="37" height="36" viewBox="0 0 37 36" fill="none" xmlns="http://www.w3.org/2000/svg">
<path fill-rule="evenodd" clip-rule="evenodd" d="M0.0558472 3C0.0558472 2.20435 0.326765 1.44129 0.809001 0.87868C1.29124 0.316071 1.94529 0 2.62728 0H33.4844C34.1664 0 34.8205 0.316071 35.3027 0.87868C35.7849 1.44129 36.0558 2.20435 36.0558 3C36.0558 3.79565 35.7849 4.55871 35.3027 5.12132C34.8205 5.68393 34.1664 6 33.4844 6H2.62728C1.94529 6 1.29124 5.68393 0.809001 5.12132C0.326765 4.55871 0.0558472 3.79565 0.0558472 3ZM0.0558472 18C0.0558472 17.2044 0.326765 16.4413 0.809001 15.8787C1.29124 15.3161 1.94529 15 2.62728 15H33.4844C34.1664 15 34.8205 15.3161 35.3027 15.8787C35.7849 16.4413 36.0558 17.2044 36.0558 18C36.0558 18.7956 35.7849 19.5587 35.3027 20.1213C34.8205 20.6839 34.1664 21 33.4844 21H2.62728C1.94529 21 1.29124 20.6839 0.809001 20.1213C0.326765 19.5587 0.0558472 18.7956 0.0558472 18ZM15.4844 33C15.4844 32.2043 15.7553 31.4413 16.2376 30.8787C16.7198 30.3161 17.3739 30 18.0558 30H33.4844C34.1664 30 34.8205 30.3161 35.3027 30.8787C35.7849 31.4413 36.0558 32.2043 36.0558 33C36.0558 33.7957 35.7849 34.5587 35.3027 35.1213C34.8205 35.6839 34.1664 36 33.4844 36H18.0558C17.3739 36 16.7198 35.6839 16.2376 35.1213C15.7553 34.5587 15.4844 33.7957 15.4844 33Z" fill="#F5F3F3"/>
</svg>
